<svg xmlns="http://www.w3.org/2000/svg" width="42.688" height="50.5" viewBox="0 0 42.688 50.5">
  <g id="_003-interface" data-name="003-interface" transform="translate(-39.75 0.25)">
    <g id="Group_29" data-name="Group 29" transform="translate(40)">
      <g id="Group_28" data-name="Group 28">
        <path id="Path_269" data-name="Path 269" d="M82.187,10.156a.779.779,0,0,0-.229-.552L72.584.229A.781.781,0,0,0,72.031,0H42.344A2.344,2.344,0,0,0,40,2.344V47.656A2.344,2.344,0,0,0,42.344,50h37.5a2.344,2.344,0,0,0,2.344-2.344v-37.5ZM72.813,2.667,79.52,9.375H73.594a.781.781,0,0,1-.781-.781Zm7.813,44.989a.781.781,0,0,1-.781.781h-37.5a.781.781,0,0,1-.781-.781V2.344a.781.781,0,0,1,.781-.781H71.25V8.594a2.344,2.344,0,0,0,2.344,2.344h7.031Z" transform="translate(-40)" fill="#6fbd13" stroke="#6fbd13" stroke-width="0.5"/>
      </g>
    </g>
    <g id="Group_31" data-name="Group 31" transform="translate(44.688 15.625)">
      <g id="Group_30" data-name="Group 30">
        <path id="Path_270" data-name="Path 270" d="M120.031,160H88.781a.781.781,0,0,0-.781.781v28.125a.781.781,0,0,0,.781.781h31.25a.781.781,0,0,0,.781-.781V160.781A.781.781,0,0,0,120.031,160Zm-.781,24.219h-7.031v1.563h7.031v2.344H89.563v-2.344h7.031v-1.562H89.563V161.563H119.25Z" transform="translate(-88 -160)" fill="#6fbd13" stroke="#6fbd13" stroke-width="0.5"/>
      </g>
    </g>
    <g id="Group_33" data-name="Group 33" transform="translate(44.688 3.906)">
      <g id="Group_32" data-name="Group 32">
        <path id="Path_271" data-name="Path 271" d="M93.469,40H88.781a.781.781,0,0,0-.781.781v4.688a.781.781,0,0,0,.781.781h4.688a.781.781,0,0,0,.781-.781V40.781A.781.781,0,0,0,93.469,40Zm-.781,4.688H89.563V41.563h3.125Z" transform="translate(-88 -40)" fill="#6fbd13" stroke="#6fbd13" stroke-width="0.5"/>
      </g>
    </g>
    <g id="Group_35" data-name="Group 35" transform="translate(52.5 4.688)">
      <g id="Group_34" data-name="Group 34">
        <path id="Path_272" data-name="Path 272" d="M179.719,48H168.781a.781.781,0,0,0-.781.781v1.563h1.563v-.781h9.375v.781H180.5V48.781A.781.781,0,0,0,179.719,48Z" transform="translate(-168 -48)" fill="#6fbd13" stroke="#6fbd13" stroke-width="0.5"/>
      </g>
    </g>
    <g id="Group_37" data-name="Group 37" transform="translate(52.5 8.594)">
      <g id="Group_36" data-name="Group 36">
        <rect id="Rectangle_45" data-name="Rectangle 45" width="9.375" height="1.563" fill="#6fbd13" stroke="#6fbd13" stroke-width="0.5"/>
      </g>
    </g>
    <g id="Group_39" data-name="Group 39" transform="translate(63.438 8.594)">
      <g id="Group_38" data-name="Group 38">
        <rect id="Rectangle_46" data-name="Rectangle 46" width="1.563" height="1.563" fill="#6fbd13" stroke="#6fbd13" stroke-width="0.5"/>
      </g>
    </g>
    <g id="Group_41" data-name="Group 41" transform="translate(50.938 20.313)">
      <g id="Group_40" data-name="Group 40">
        <path id="Path_273" data-name="Path 273" d="M171.531,215.813H168.78a7.027,7.027,0,0,0-.283-.682l1.945-1.946a.781.781,0,0,0,0-1.1l-2.209-2.209a.781.781,0,0,0-1.1,0l-1.946,1.945a7.027,7.027,0,0,0-.682-.283v-2.752a.781.781,0,0,0-.781-.781h-3.125a.781.781,0,0,0-.781.781v2.752a7.027,7.027,0,0,0-.682.283l-1.946-1.945a.781.781,0,0,0-1.1,0l-2.209,2.209a.781.781,0,0,0,0,1.1l1.945,1.946a7.027,7.027,0,0,0-.283.682h-2.752a.781.781,0,0,0-.781.781v3.125a.781.781,0,0,0,.781.781h2.752a7.026,7.026,0,0,0,.283.682l-1.945,1.946a.781.781,0,0,0,0,1.1l2.209,2.209a.781.781,0,0,0,1.1,0l1.946-1.945a7.031,7.031,0,0,0,.682.283v2.752a.781.781,0,0,0,.781.781h3.125a.781.781,0,0,0,.781-.781V224.78a7.027,7.027,0,0,0,.682-.283l1.946,1.945a.781.781,0,0,0,1.1,0l2.209-2.209a.781.781,0,0,0,0-1.1l-1.945-1.946a7.027,7.027,0,0,0,.283-.682h2.752a.781.781,0,0,0,.781-.781v-3.125A.781.781,0,0,0,171.531,215.813Zm-.781,3.124H168.2a.781.781,0,0,0-.755.586,5.468,5.468,0,0,1-.584,1.406.781.781,0,0,0,.121.95l1.8,1.8-1.1,1.1-1.8-1.8a.781.781,0,0,0-.95-.121,5.469,5.469,0,0,1-1.406.584.781.781,0,0,0-.586.755v2.548h-1.562V224.2a.781.781,0,0,0-.586-.755,5.469,5.469,0,0,1-1.406-.584.781.781,0,0,0-.95.121l-1.8,1.8-1.1-1.1,1.8-1.8a.781.781,0,0,0,.121-.95,5.469,5.469,0,0,1-.584-1.406.781.781,0,0,0-.755-.586h-2.548v-1.562h2.548a.781.781,0,0,0,.755-.586,5.468,5.468,0,0,1,.584-1.406.781.781,0,0,0-.121-.95l-1.8-1.8,1.1-1.1,1.8,1.8a.781.781,0,0,0,.95.121,5.469,5.469,0,0,1,1.406-.584.781.781,0,0,0,.586-.755v-2.548h1.562v2.548a.781.781,0,0,0,.586.755,5.468,5.468,0,0,1,1.406.584.781.781,0,0,0,.95-.121l1.8-1.8,1.1,1.1-1.8,1.8a.781.781,0,0,0-.121.95,5.469,5.469,0,0,1,.584,1.406.781.781,0,0,0,.755.586h2.548Z" transform="translate(-152 -208)" fill="#6fbd13" stroke="#6fbd13" stroke-width="0.5"/>
      </g>
    </g>
    <g id="Group_43" data-name="Group 43" transform="translate(57.969 27.344)">
      <g id="Group_42" data-name="Group 42">
        <path id="Path_274" data-name="Path 274" d="M227.125,280a3.125,3.125,0,1,0,3.125,3.125A3.125,3.125,0,0,0,227.125,280Zm0,4.688a1.563,1.563,0,1,1,1.563-1.562A1.562,1.562,0,0,1,227.125,284.688Z" transform="translate(-224 -280)" fill="#6fbd13" stroke="#6fbd13" stroke-width="0.5"/>
      </g>
    </g>
  </g>
</svg>
