<svg xmlns="http://www.w3.org/2000/svg" width="50" height="50" viewBox="0 0 50 50">
  <g id="_001-camera" data-name="001-camera" transform="translate(-2 -11)">
    <g id="Group_29" data-name="Group 29" transform="translate(2 11)">
      <g id="Group_28" data-name="Group 28">
        <rect id="Rectangle_45" data-name="Rectangle 45" width="2.083" height="2.083" transform="translate(21.875 9.375)" fill="#6fbd13"/>
        <rect id="Rectangle_46" data-name="Rectangle 46" width="2.083" height="2.083" transform="translate(26.042 9.375)" fill="#6fbd13"/>
        <path id="Path_269" data-name="Path 269" d="M38.25,4.167H36.167a1.042,1.042,0,0,0-1.042,1.042V8.333a4.166,4.166,0,0,0,7.759,2.11c.966.079,3.13.389,3.605,1.566a5.21,5.21,0,0,0,4.42,4.6,3.132,3.132,0,0,0,1.924,1.961v1.22A5.215,5.215,0,0,1,47.625,25h-3.3a3.124,3.124,0,1,0-1.6,3.862l8.333,8.333a3.125,3.125,0,1,0,5.767,2.389h9.732A3.125,3.125,0,1,0,70.542,35.6V28.988a3.125,3.125,0,1,0-2.083,0V35.6a3.133,3.133,0,0,0-1.9,1.9H56.822a3.127,3.127,0,0,0-4.294-1.779L44.2,27.389a3.114,3.114,0,0,0,.126-.306h3.3a7.3,7.3,0,0,0,7.292-7.292v-1.22a3.132,3.132,0,0,0,1.924-1.961q.131-.019.262-.045A5.211,5.211,0,0,0,61.263,12c.48-1.181,2.637-1.482,3.6-1.557a4.166,4.166,0,0,0,7.76-2.108V5.208a1.042,1.042,0,0,0-1.042-1.042H69.5V3.125h6.25V1.042H61.167V3.125h6.25V4.167H58.979a5.209,5.209,0,0,0-10.208,0H40.333V3.125h6.25V1.042H32V3.125h6.25Zm2.083,21.875a1.042,1.042,0,1,1,1.042,1.042A1.042,1.042,0,0,1,40.333,26.042ZM69.5,25a1.042,1.042,0,1,1-1.042,1.042A1.042,1.042,0,0,1,69.5,25Zm0,12.5a1.042,1.042,0,1,1-1.042,1.042A1.042,1.042,0,0,1,69.5,37.5ZM54.917,38.542A1.042,1.042,0,1,1,53.875,37.5,1.042,1.042,0,0,1,54.917,38.542ZM66.375,6.25h4.167V8.333a2.083,2.083,0,1,1-4.167,0V6.25ZM43.457,8.388c0-.018,0-.036,0-.054V6.25h3.973a3.147,3.147,0,0,0-.119.429l-.539,2.7A8.387,8.387,0,0,0,43.457,8.388Zm12.627,6.2H51.666a3.124,3.124,0,0,1-3-2.261,3.552,3.552,0,0,0-.121-.783,3.14,3.14,0,0,1,.06-.7l.751-3.757a1.042,1.042,0,0,1,1.022-.833h7a1.042,1.042,0,0,1,1.022.833l.752,3.763a3.127,3.127,0,0,1,.061.613c0,.028,0,.055,0,.083a3.553,3.553,0,0,0-.12.781A3.126,3.126,0,0,1,56.084,14.583Zm4.892-5.205-.539-2.7a3.146,3.146,0,0,0-.119-.429h3.973V8.333c0,.018,0,.036,0,.054A8.389,8.389,0,0,0,60.977,9.378Zm-7.1-7.295a3.126,3.126,0,0,1,2.947,2.083H50.929A3.126,3.126,0,0,1,53.875,2.083Zm-12.5,6.25a2.083,2.083,0,1,1-4.167,0V6.25h4.167Z" transform="translate(-28.875)" fill="#6fbd13"/>
        <path id="Path_270" data-name="Path 270" d="M48.958,178.5H47.917V152.458a3.125,3.125,0,0,0-3.125-3.125H33.333v2.083H44.792a1.042,1.042,0,0,1,1.042,1.042V178.5H4.167V152.458a1.042,1.042,0,0,1,1.042-1.042H16.667v-2.083H5.208a3.125,3.125,0,0,0-3.125,3.125V178.5H1.042A1.042,1.042,0,0,0,0,179.542a5.214,5.214,0,0,0,5.208,5.208H44.792A5.214,5.214,0,0,0,50,179.542,1.042,1.042,0,0,0,48.958,178.5Zm-4.167,4.167H5.208a3.131,3.131,0,0,1-2.947-2.083H20.833v1.042h8.333v-1.042H47.739A3.131,3.131,0,0,1,44.792,182.667Z" transform="translate(0 -134.75)" fill="#6fbd13"/>
        <rect id="Rectangle_47" data-name="Rectangle 47" width="2.083" height="2.083" transform="translate(6.25 39.583)" fill="#6fbd13"/>
        <rect id="Rectangle_48" data-name="Rectangle 48" width="2.083" height="2.083" transform="translate(6.25 35.417)" fill="#6fbd13"/>
        <rect id="Rectangle_49" data-name="Rectangle 49" width="2.083" height="2.083" transform="translate(10.417 39.583)" fill="#6fbd13"/>
      </g>
    </g>
  </g>
</svg>
