<svg xmlns="http://www.w3.org/2000/svg" width="30" height="30" viewBox="0 0 30 30">
  <g id="Linkedin" transform="translate(-817 -1911)">
    <path id="Oval-1" d="M15,0A15,15,0,1,1,0,15,15,15,0,0,1,15,0Z" transform="translate(817 1911)" fill="#fff" opacity="0.498"/>
    <path id="Fill-182" d="M18.726,21.15A1.581,1.581,0,1,0,17,19.576a1.654,1.654,0,0,0,1.726,1.574" transform="translate(808 1901)" fill="#fff" fill-rule="evenodd"/>
    <path id="Fill-183" d="M18,37.926h3.095V29H18Z" transform="translate(807.395 1894.349)" fill="#fff" fill-rule="evenodd"/>
    <path id="Fill-184" d="M32.09,32.357c0-1.024.484-2.025,1.642-2.025s1.443,1,1.443,2v4.875h3.081V32.133c0-3.525-2.084-4.133-3.366-4.133a3.133,3.133,0,0,0-2.8,1.483v-1.2H29v8.926h3.09Z" transform="translate(800.744 1894.953)" fill="#fff" fill-rule="evenodd"/>
  </g>
</svg>
