<svg xmlns="http://www.w3.org/2000/svg" width="172" height="60" viewBox="0 0 172 60">
  <g id="Logo" transform="translate(0 5.889)">
    <path id="Path_697" data-name="Path 697" d="M49.681,32.106a17.5,17.5,0,1,0,17.5,17.5A17.5,17.5,0,0,0,49.681,32.106Zm0,1.667A15.816,15.816,0,0,1,62.611,40.5l-2.083,2.083a3.288,3.288,0,0,0-1.68-.475,3.333,3.333,0,0,0-3.333,3.333,3.289,3.289,0,0,0,.472,1.682L50.53,52.578a3.232,3.232,0,0,0-3.365,0l-3.79-3.79a3.289,3.289,0,0,0,.472-1.682,3.327,3.327,0,0,0-6.548-.833H34.209A15.855,15.855,0,0,1,49.681,33.773ZM60.514,45.439a1.667,1.667,0,1,1-1.667-1.667A1.667,1.667,0,0,1,60.514,45.439Zm-10,10a1.667,1.667,0,1,1-1.667-1.667A1.667,1.667,0,0,1,50.515,55.438Zm-8.333-8.333a1.667,1.667,0,1,1-1.667-1.667A1.667,1.667,0,0,1,42.182,47.105ZM57.374,63.449a15.829,15.829,0,0,1-23.436-15.51H37.3a3.333,3.333,0,0,0,3.215,2.5,3.289,3.289,0,0,0,1.682-.472l3.79,3.79a3.289,3.289,0,0,0-.472,1.682,3.333,3.333,0,1,0,6.666,0,3.289,3.289,0,0,0-.472-1.682L57.165,48.3a3.289,3.289,0,0,0,1.682.472,3.333,3.333,0,0,0,3.333-3.333,3.289,3.289,0,0,0-.472-1.682l1.817-1.816A15.818,15.818,0,0,1,57.374,63.449Z" transform="translate(-28.83 -28.69)" fill="#fff"/>
    <path id="Path_698" data-name="Path 698" d="M41.684,8.416a3.333,3.333,0,0,0,3.215-2.5h5.118V4.249H44.9a3.326,3.326,0,0,0-6.548.833,3.289,3.289,0,0,0,.472,1.682L37.359,8.229a20.832,20.832,0,1,0-5.2,30.17l2.515,2.515,1.178,1.178L42.559,48.8a4.369,4.369,0,1,0,6.178-6.178l-6.708-6.708-1.178-1.178-2.515-2.515a20.763,20.763,0,0,0,0-22.612L40,7.943A3.29,3.29,0,0,0,41.684,8.416Zm0-5a1.667,1.667,0,1,1-1.667,1.667A1.667,1.667,0,0,1,41.684,3.416ZM47.559,43.8a2.7,2.7,0,0,1-3.778,3.865l-.043-.043-6.708-6.708,3.821-3.821Zm-7.886-7.886-3.821,3.821L33.544,37.43c.117-.09.227-.189.343-.282s.25-.2.374-.307c.182-.153.362-.308.539-.467.091-.083.177-.167.267-.25q.512-.48.992-.992c.083-.089.167-.176.25-.267.159-.177.314-.357.467-.539q.157-.185.307-.374c.092-.115.191-.225.281-.342Zm-3.232-3.871c-.262.367-.533.726-.819,1.072-.083.1-.172.2-.258.3q-.382.445-.79.863-.177.183-.361.361-.417.407-.863.79c-.1.083-.2.174-.3.258-.346.286-.7.557-1.072.819a19.2,19.2,0,1,1,4.461-4.461Z" transform="translate(0 0)" fill="#fff"/>
    <text id="Enescent_Media" data-name="Enescent
Media" transform="translate(66 23.111)" fill="#fff" font-size="27" font-family="SegoeUI, Segoe UI"><tspan x="0" y="0">Enescent</tspan><tspan x="0" y="24">Media</tspan></text>
  </g>
</svg>
