<svg xmlns="http://www.w3.org/2000/svg" width="30" height="30" viewBox="0 0 30 30">
  <g id="Twitter" transform="translate(-817 -1911)">
    <path id="Oval-1" d="M15,0A15,15,0,1,1,0,15,15,15,0,0,1,15,0Z" transform="translate(817 1911)" fill="#fff" opacity="0.498"/>
    <path id="Fill-1" d="M32.038,21.261a4.819,4.819,0,0,1-1.859.66h0a2.98,2.98,0,0,0-5.06,2.725h0a8.256,8.256,0,0,1-6.145-3.093,2.982,2.982,0,0,0,.9,3.939,1.916,1.916,0,0,1-1.3-.337,2.873,2.873,0,0,0,2.3,2.913,2.36,2.36,0,0,1-1.241.094A2.818,2.818,0,0,0,22.3,30.184,5.3,5.3,0,0,1,18,31.422a8.957,8.957,0,0,0,4.663,1.318,8.281,8.281,0,0,0,8.343-8.706c0-.005,0-.011,0-.016s0-.025,0-.038,0-.029,0-.044a5.142,5.142,0,0,0,1.445-1.526,5.224,5.224,0,0,1-1.653.469,3.167,3.167,0,0,0,1.242-1.619" transform="translate(807 1899.26)" fill="#fff" fill-rule="evenodd"/>
  </g>
</svg>
